<?xml version="1.0" encoding="iso-8859-1"?>
<!-- Generator: Adobe Illustrator 17.1.0, SVG Export Plug-In . SVG Version: 6.00 Build 0)  -->
<!DOCTYPE svg PUBLIC "-//W3C//DTD SVG 1.1//EN" "http://www.w3.org/Graphics/SVG/1.1/DTD/svg11.dtd">
<svg version="1.1" id="Capa_1" xmlns="http://www.w3.org/2000/svg" xmlns:xlink="http://www.w3.org/1999/xlink" x="0px" y="0px"
	 viewBox="0 0 442.019 442.019" style="enable-background:new 0 0 442.019 442.019;" xml:space="preserve">
<path d="M436.893,365.748l-42.939-42.938c9.857-14.67,15.155-31.924,15.155-49.993c0-24.013-9.351-46.588-26.33-63.567
	c-5.758-5.759-12.172-10.616-19.056-14.552v-4.653h43.734c6.74,0,12.649-3.297,15.808-8.819s3.003-12.288-0.414-18.096
	L361.073,58.102c-4.118-7.001-12.342-11.705-20.465-11.705h-121.4h-12.885h-121.4c-8.125,0-16.349,4.705-20.464,11.704
	L2.678,163.128c-3.418,5.809-3.573,12.574-0.415,18.097c3.159,5.522,9.068,8.819,15.808,8.819h43.735v81.282
	c0,10.483,7.852,21.104,17.876,24.176l117.276,35.951c4.277,1.312,9.89,2.033,15.807,2.033s11.53-0.722,15.807-2.033l18.089-5.545
	c2.684,3.662,5.677,7.167,8.985,10.475c16.979,16.979,39.555,26.33,63.567,26.33c18.069,0,35.323-5.299,49.993-15.155l42.939,42.938
	c3.417,3.417,7.896,5.126,12.374,5.126s8.957-1.709,12.374-5.126C443.728,383.662,443.728,372.582,436.893,365.748z
	 M148.892,162.622H36.15l52.237-88.803h112.742L148.892,162.622z M224.656,73.957H337.05l52.075,88.527H276.731L224.656,73.957z
	 M276.859,315.17c-23.354-23.354-23.354-61.354,0-84.708c11.313-11.313,26.354-17.543,42.354-17.543
	c15.999,0,31.04,6.23,42.354,17.543c11.313,11.313,17.543,26.354,17.543,42.354c0,15.999-6.23,31.04-17.543,42.354
	c-11.313,11.313-26.354,17.543-42.354,17.543C303.213,332.713,288.172,326.482,276.859,315.17z"  fill="#90b4ce" />
<g>
</g>
<g>
</g>
<g>
</g>
<g>
</g>
<g>
</g>
<g>
</g>
<g>
</g>
<g>
</g>
<g>
</g>
<g>
</g>
<g>
</g>
<g>
</g>
<g>
</g>
<g>
</g>
<g>
</g>
</svg>
