<svg xmlns="http://www.w3.org/2000/svg" xmlns:xlink="http://www.w3.org/1999/xlink" width="50" zoomAndPan="magnify" viewBox="0 0 375 374.999991" height="50" preserveAspectRatio="xMidYMid meet" version="1.0"><defs><filter x="0%" y="0%" width="100%" height="100%" id="id1"><feColorMatrix values="0 0 0 0 1 0 0 0 0 1 0 0 0 0 1 0 0 0 1 0" color-interpolation-filters="sRGB"/></filter><clipPath id="id2"><path d="M 83 24.984375 L 292 24.984375 L 292 234 L 83 234 Z M 83 24.984375 " clip-rule="nonzero"/></clipPath><clipPath id="id3"><path d="M 160 129 L 368.933594 129 L 368.933594 337.734375 L 160 337.734375 Z M 160 129 " clip-rule="nonzero"/></clipPath><clipPath id="id4"><path d="M 6 129 L 215 129 L 215 337.734375 L 6 337.734375 Z M 6 129 " clip-rule="nonzero"/></clipPath><mask id="id5"><g filter="url(#id1)"><rect x="-37.5" width="450" fill="#000000" y="-37.499999" height="449.999989" fill-opacity="0.498"/></g></mask><clipPath id="id6"><path d="M 0.0390625 0.121094 L 105 0.121094 L 105 101 L 0.0390625 101 Z M 0.0390625 0.121094 " clip-rule="nonzero"/></clipPath><clipPath id="id7"><rect x="0" width="106" y="0" height="102"/></clipPath><mask id="id8"><g filter="url(#id1)"><rect x="-37.5" width="450" fill="#000000" y="-37.499999" height="449.999989" fill-opacity="0.498"/></g></mask><clipPath id="id9"><path d="M 0.199219 0.121094 L 104.601562 0.121094 L 104.601562 101 L 0.199219 101 Z M 0.199219 0.121094 " clip-rule="nonzero"/></clipPath><clipPath id="id10"><rect x="0" width="105" y="0" height="102"/></clipPath><mask id="id11"><g filter="url(#id1)"><rect x="-37.5" width="450" fill="#000000" y="-37.499999" height="449.999989" fill-opacity="0.498"/></g></mask><clipPath id="id12"><path d="M 0.800781 1 L 54 1 L 54 70.761719 L 0.800781 70.761719 Z M 0.800781 1 " clip-rule="nonzero"/></clipPath><clipPath id="id13"><rect x="0" width="55" y="0" height="71"/></clipPath><mask id="id14"><g filter="url(#id1)"><rect x="-37.5" width="450" fill="#000000" y="-37.499999" height="449.999989" fill-opacity="0.498"/></g></mask><clipPath id="id15"><path d="M 0.078125 1 L 54.558594 1 L 54.558594 75.601562 L 0.078125 75.601562 Z M 0.078125 1 " clip-rule="nonzero"/></clipPath><clipPath id="id16"><rect x="0" width="55" y="0" height="76"/></clipPath><mask id="id17"><g filter="url(#id1)"><rect x="-37.5" width="450" fill="#000000" y="-37.499999" height="449.999989" fill-opacity="0.498"/></g></mask><clipPath id="id18"><path d="M 0.800781 1 L 54 1 L 54 70.761719 L 0.800781 70.761719 Z M 0.800781 1 " clip-rule="nonzero"/></clipPath><clipPath id="id19"><rect x="0" width="55" y="0" height="71"/></clipPath></defs><g clip-path="url(#id2)"><path fill="#318ba2" d="M 291.257812 129.082031 C 291.257812 130.789062 291.21875 132.488281 291.132812 134.191406 C 291.050781 135.894531 290.925781 137.589844 290.757812 139.289062 C 290.589844 140.984375 290.382812 142.671875 290.132812 144.359375 C 289.882812 146.042969 289.59375 147.722656 289.261719 149.390625 C 288.929688 151.0625 288.554688 152.726562 288.140625 154.378906 C 287.730469 156.03125 287.273438 157.671875 286.78125 159.300781 C 286.289062 160.933594 285.753906 162.550781 285.179688 164.152344 C 284.605469 165.757812 283.996094 167.347656 283.34375 168.921875 C 282.691406 170.496094 282.003906 172.050781 281.273438 173.59375 C 280.546875 175.132812 279.78125 176.652344 278.980469 178.15625 C 278.179688 179.660156 277.339844 181.140625 276.464844 182.601562 C 275.589844 184.0625 274.679688 185.5 273.734375 186.917969 C 272.789062 188.335938 271.808594 189.726562 270.796875 191.09375 C 269.78125 192.464844 268.734375 193.808594 267.65625 195.125 C 266.574219 196.441406 265.464844 197.730469 264.320312 198.992188 C 263.179688 200.253906 262.003906 201.488281 260.800781 202.691406 C 259.597656 203.898438 258.367188 205.070312 257.105469 206.214844 C 255.84375 207.359375 254.558594 208.472656 253.242188 209.554688 C 251.925781 210.632812 250.585938 211.683594 249.21875 212.695312 C 247.851562 213.710938 246.460938 214.691406 245.046875 215.640625 C 243.628906 216.585938 242.191406 217.496094 240.734375 218.371094 C 239.273438 219.25 237.792969 220.089844 236.292969 220.890625 C 234.792969 221.695312 233.273438 222.460938 231.734375 223.1875 C 230.195312 223.917969 228.640625 224.605469 227.066406 225.257812 C 225.496094 225.910156 223.90625 226.523438 222.304688 227.097656 C 220.703125 227.671875 219.085938 228.207031 217.460938 228.699219 C 215.832031 229.195312 214.191406 229.648438 212.539062 230.0625 C 210.890625 230.476562 209.230469 230.851562 207.5625 231.183594 C 205.890625 231.515625 204.214844 231.804688 202.53125 232.054688 C 200.847656 232.304688 199.160156 232.515625 197.464844 232.683594 C 195.773438 232.847656 194.078125 232.972656 192.375 233.058594 C 190.675781 233.140625 188.976562 233.183594 187.273438 233.183594 C 185.574219 233.183594 183.871094 233.140625 182.171875 233.058594 C 180.472656 232.972656 178.777344 232.847656 177.082031 232.683594 C 175.386719 232.515625 173.699219 232.304688 172.015625 232.054688 C 170.332031 231.804688 168.65625 231.515625 166.988281 231.183594 C 165.320312 230.851562 163.660156 230.476562 162.007812 230.0625 C 160.355469 229.648438 158.71875 229.195312 157.089844 228.699219 C 155.460938 228.207031 153.84375 227.671875 152.242188 227.097656 C 150.640625 226.523438 149.054688 225.910156 147.480469 225.257812 C 145.910156 224.605469 144.355469 223.917969 142.816406 223.1875 C 141.277344 222.460938 139.757812 221.695312 138.257812 220.890625 C 136.753906 220.089844 135.273438 219.25 133.816406 218.371094 C 132.355469 217.496094 130.917969 216.585938 129.503906 215.640625 C 128.089844 214.691406 126.699219 213.710938 125.332031 212.695312 C 123.964844 211.683594 122.621094 210.632812 121.308594 209.554688 C 119.992188 208.472656 118.703125 207.359375 117.441406 206.214844 C 116.179688 205.070312 114.949219 203.898438 113.746094 202.691406 C 112.542969 201.488281 111.371094 200.253906 110.226562 198.992188 C 109.085938 197.730469 107.972656 196.441406 106.894531 195.125 C 105.8125 193.808594 104.765625 192.464844 103.753906 191.09375 C 102.738281 189.726562 101.761719 188.335938 100.8125 186.917969 C 99.867188 185.5 98.957031 184.0625 98.082031 182.601562 C 97.207031 181.140625 96.371094 179.660156 95.566406 178.15625 C 94.765625 176.652344 94 175.132812 93.273438 173.59375 C 92.546875 172.050781 91.855469 170.496094 91.207031 168.921875 C 90.554688 167.347656 89.941406 165.757812 89.367188 164.152344 C 88.796875 162.550781 88.261719 160.933594 87.765625 159.300781 C 87.273438 157.671875 86.820312 156.03125 86.40625 154.378906 C 85.992188 152.726562 85.621094 151.0625 85.289062 149.390625 C 84.957031 147.722656 84.664062 146.042969 84.414062 144.359375 C 84.164062 142.671875 83.957031 140.984375 83.789062 139.289062 C 83.625 137.589844 83.5 135.894531 83.414062 134.191406 C 83.332031 132.488281 83.289062 130.789062 83.289062 129.082031 C 83.289062 127.378906 83.332031 125.675781 83.414062 123.976562 C 83.5 122.273438 83.625 120.574219 83.789062 118.878906 C 83.957031 117.183594 84.164062 115.496094 84.414062 113.808594 C 84.664062 112.125 84.957031 110.445312 85.289062 108.773438 C 85.621094 107.105469 85.992188 105.441406 86.40625 103.789062 C 86.820312 102.136719 87.273438 100.496094 87.765625 98.863281 C 88.261719 97.234375 88.796875 95.617188 89.367188 94.011719 C 89.941406 92.410156 90.554688 90.820312 91.207031 89.246094 C 91.855469 87.671875 92.546875 86.117188 93.273438 84.574219 C 94 83.035156 94.765625 81.515625 95.566406 80.011719 C 96.371094 78.507812 97.207031 77.027344 98.082031 75.566406 C 98.957031 74.105469 99.867188 72.664062 100.8125 71.25 C 101.761719 69.832031 102.738281 68.441406 103.753906 67.070312 C 104.765625 65.703125 105.8125 64.359375 106.894531 63.042969 C 107.972656 61.726562 109.085938 60.4375 110.226562 59.175781 C 111.371094 57.914062 112.542969 56.679688 113.746094 55.472656 C 114.949219 54.269531 116.179688 53.09375 117.441406 51.949219 C 118.703125 50.808594 119.992188 49.695312 121.308594 48.613281 C 122.621094 47.53125 123.964844 46.484375 125.332031 45.46875 C 126.699219 44.457031 128.089844 43.476562 129.503906 42.527344 C 130.917969 41.582031 132.355469 40.671875 133.816406 39.792969 C 135.273438 38.917969 136.753906 38.078125 138.257812 37.277344 C 139.757812 36.472656 141.277344 35.707031 142.816406 34.980469 C 144.355469 34.25 145.910156 33.558594 147.480469 32.910156 C 149.054688 32.257812 150.640625 31.644531 152.242188 31.070312 C 153.84375 30.496094 155.460938 29.960938 157.089844 29.464844 C 158.71875 28.972656 160.355469 28.519531 162.007812 28.105469 C 163.660156 27.691406 165.320312 27.316406 166.988281 26.984375 C 168.65625 26.652344 170.332031 26.359375 172.015625 26.109375 C 173.699219 25.859375 175.386719 25.652344 177.082031 25.484375 C 178.777344 25.320312 180.472656 25.191406 182.171875 25.109375 C 183.871094 25.027344 185.574219 24.984375 187.273438 24.984375 C 188.976562 24.984375 190.675781 25.027344 192.375 25.109375 C 194.078125 25.191406 195.773438 25.320312 197.464844 25.484375 C 199.160156 25.652344 200.847656 25.859375 202.53125 26.109375 C 204.214844 26.359375 205.890625 26.652344 207.5625 26.984375 C 209.230469 27.316406 210.890625 27.691406 212.539062 28.105469 C 214.191406 28.519531 215.832031 28.972656 217.460938 29.464844 C 219.085938 29.960938 220.703125 30.496094 222.304688 31.070312 C 223.90625 31.644531 225.496094 32.257812 227.066406 32.910156 C 228.640625 33.558594 230.195312 34.25 231.734375 34.980469 C 233.273438 35.707031 234.792969 36.472656 236.292969 37.277344 C 237.792969 38.078125 239.273438 38.917969 240.734375 39.792969 C 242.191406 40.671875 243.628906 41.582031 245.046875 42.527344 C 246.460938 43.476562 247.851562 44.457031 249.21875 45.46875 C 250.585938 46.484375 251.925781 47.53125 253.242188 48.613281 C 254.558594 49.695312 255.84375 50.808594 257.105469 51.949219 C 258.367188 53.09375 259.597656 54.269531 260.800781 55.472656 C 262.003906 56.679688 263.179688 57.914062 264.320312 59.175781 C 265.464844 60.4375 266.574219 61.726562 267.65625 63.042969 C 268.734375 64.359375 269.78125 65.703125 270.796875 67.070312 C 271.808594 68.441406 272.789062 69.832031 273.734375 71.25 C 274.679688 72.664062 275.589844 74.105469 276.464844 75.566406 C 277.339844 77.027344 278.179688 78.507812 278.980469 80.011719 C 279.78125 81.515625 280.546875 83.035156 281.273438 84.574219 C 282.003906 86.117188 282.691406 87.671875 283.34375 89.246094 C 283.996094 90.820312 284.605469 92.410156 285.179688 94.011719 C 285.753906 95.617188 286.289062 97.234375 286.78125 98.863281 C 287.273438 100.496094 287.730469 102.136719 288.140625 103.789062 C 288.554688 105.441406 288.929688 107.105469 289.261719 108.773438 C 289.59375 110.445312 289.882812 112.125 290.132812 113.808594 C 290.382812 115.496094 290.589844 117.183594 290.757812 118.878906 C 290.925781 120.574219 291.050781 122.273438 291.132812 123.976562 C 291.21875 125.675781 291.257812 127.378906 291.257812 129.082031 Z M 291.257812 129.082031 " fill-opacity="1" fill-rule="nonzero"/></g><g clip-path="url(#id3)"><path fill="#5271ff" d="M 368.789062 233.636719 C 368.789062 235.339844 368.75 237.042969 368.664062 238.742188 C 368.582031 240.445312 368.457031 242.144531 368.289062 243.839844 C 368.121094 245.535156 367.914062 247.222656 367.664062 248.910156 C 367.414062 250.59375 367.125 252.273438 366.792969 253.945312 C 366.460938 255.613281 366.085938 257.277344 365.675781 258.929688 C 365.261719 260.582031 364.808594 262.222656 364.3125 263.851562 C 363.820312 265.484375 363.285156 267.101562 362.710938 268.703125 C 362.136719 270.308594 361.527344 271.898438 360.875 273.472656 C 360.222656 275.046875 359.535156 276.601562 358.808594 278.144531 C 358.078125 279.683594 357.3125 281.203125 356.511719 282.707031 C 355.710938 284.210938 354.871094 285.691406 353.996094 287.152344 C 353.121094 288.613281 352.210938 290.054688 351.265625 291.46875 C 350.320312 292.886719 349.339844 294.277344 348.328125 295.648438 C 347.3125 297.015625 346.265625 298.359375 345.1875 299.675781 C 344.105469 300.992188 342.996094 302.28125 341.851562 303.542969 C 340.710938 304.804688 339.539062 306.039062 338.332031 307.246094 C 337.128906 308.449219 335.898438 309.625 334.636719 310.765625 C 333.375 311.910156 332.089844 313.023438 330.773438 314.105469 C 329.457031 315.183594 328.117188 316.234375 326.75 317.25 C 325.382812 318.261719 323.992188 319.242188 322.578125 320.191406 C 321.160156 321.136719 319.722656 322.046875 318.265625 322.921875 C 316.804688 323.800781 315.324219 324.640625 313.824219 325.441406 C 312.324219 326.246094 310.804688 327.011719 309.265625 327.738281 C 307.726562 328.46875 306.171875 329.15625 304.597656 329.808594 C 303.027344 330.460938 301.4375 331.074219 299.835938 331.648438 C 298.234375 332.222656 296.621094 332.757812 294.992188 333.25 C 293.363281 333.746094 291.722656 334.199219 290.070312 334.613281 C 288.421875 335.027344 286.761719 335.402344 285.09375 335.734375 C 283.421875 336.066406 281.746094 336.359375 280.0625 336.609375 C 278.378906 336.859375 276.691406 337.066406 275 337.234375 C 273.304688 337.398438 271.609375 337.523438 269.90625 337.609375 C 268.207031 337.691406 266.507812 337.734375 264.804688 337.734375 C 263.105469 337.734375 261.402344 337.691406 259.703125 337.609375 C 258.003906 337.523438 256.308594 337.398438 254.613281 337.234375 C 252.921875 337.066406 251.230469 336.859375 249.546875 336.609375 C 247.863281 336.359375 246.1875 336.066406 244.519531 335.734375 C 242.851562 335.402344 241.191406 335.027344 239.539062 334.613281 C 237.890625 334.199219 236.25 333.746094 234.621094 333.25 C 232.992188 332.757812 231.375 332.222656 229.773438 331.648438 C 228.171875 331.074219 226.585938 330.460938 225.011719 329.808594 C 223.441406 329.15625 221.886719 328.46875 220.347656 327.738281 C 218.808594 327.011719 217.289062 326.246094 215.789062 325.441406 C 214.285156 324.640625 212.808594 323.800781 211.347656 322.921875 C 209.886719 322.046875 208.449219 321.136719 207.035156 320.191406 C 205.621094 319.242188 204.230469 318.261719 202.863281 317.25 C 201.496094 316.234375 200.15625 315.183594 198.839844 314.105469 C 197.523438 313.023438 196.234375 311.910156 194.972656 310.765625 C 193.714844 309.625 192.480469 308.449219 191.277344 307.246094 C 190.074219 306.039062 188.902344 304.804688 187.757812 303.542969 C 186.617188 302.28125 185.503906 300.992188 184.425781 299.675781 C 183.34375 298.359375 182.296875 297.015625 181.285156 295.648438 C 180.269531 294.277344 179.292969 292.886719 178.347656 291.46875 C 177.402344 290.054688 176.492188 288.613281 175.617188 287.152344 C 174.742188 285.691406 173.902344 284.210938 173.101562 282.707031 C 172.296875 281.203125 171.53125 279.683594 170.804688 278.144531 C 170.078125 276.601562 169.386719 275.046875 168.738281 273.472656 C 168.085938 271.898438 167.472656 270.308594 166.898438 268.703125 C 166.328125 267.101562 165.792969 265.484375 165.300781 263.851562 C 164.804688 262.222656 164.351562 260.582031 163.9375 258.929688 C 163.523438 257.277344 163.152344 255.613281 162.820312 253.945312 C 162.488281 252.273438 162.195312 250.59375 161.945312 248.910156 C 161.695312 247.222656 161.488281 245.535156 161.320312 243.839844 C 161.15625 242.144531 161.03125 240.445312 160.945312 238.742188 C 160.863281 237.042969 160.820312 235.339844 160.820312 233.636719 C 160.820312 231.929688 160.863281 230.230469 160.945312 228.527344 C 161.03125 226.824219 161.15625 225.125 161.320312 223.429688 C 161.488281 221.734375 161.695312 220.046875 161.945312 218.359375 C 162.195312 216.675781 162.488281 214.996094 162.820312 213.324219 C 163.152344 211.65625 163.523438 209.992188 163.9375 208.339844 C 164.351562 206.6875 164.804688 205.046875 165.300781 203.417969 C 165.792969 201.785156 166.328125 200.167969 166.898438 198.566406 C 167.472656 196.960938 168.085938 195.371094 168.738281 193.796875 C 169.386719 192.222656 170.078125 190.667969 170.804688 189.125 C 171.53125 187.585938 172.296875 186.066406 173.101562 184.5625 C 173.902344 183.058594 174.742188 181.578125 175.617188 180.117188 C 176.492188 178.65625 177.402344 177.21875 178.347656 175.800781 C 179.292969 174.382812 180.269531 172.992188 181.285156 171.621094 C 182.296875 170.253906 183.34375 168.910156 184.425781 167.59375 C 185.503906 166.277344 186.617188 164.988281 187.757812 163.726562 C 188.902344 162.464844 190.074219 161.230469 191.277344 160.027344 C 192.480469 158.820312 193.714844 157.644531 194.972656 156.503906 C 196.234375 155.359375 197.523438 154.246094 198.839844 153.164062 C 200.15625 152.085938 201.496094 151.035156 202.863281 150.019531 C 204.230469 149.007812 205.621094 148.027344 207.035156 147.078125 C 208.449219 146.132812 209.886719 145.222656 211.347656 144.347656 C 212.808594 143.46875 214.285156 142.628906 215.789062 141.828125 C 217.289062 141.023438 218.808594 140.257812 220.347656 139.53125 C 221.886719 138.800781 223.441406 138.113281 225.011719 137.460938 C 226.585938 136.808594 228.171875 136.195312 229.773438 135.621094 C 231.375 135.046875 232.992188 134.511719 234.621094 134.019531 C 236.25 133.523438 237.890625 133.070312 239.539062 132.65625 C 241.191406 132.242188 242.851562 131.867188 244.519531 131.535156 C 246.1875 131.203125 247.863281 130.914062 249.546875 130.664062 C 251.230469 130.414062 252.921875 130.203125 254.613281 130.035156 C 256.308594 129.871094 258.003906 129.746094 259.703125 129.660156 C 261.402344 129.578125 263.105469 129.535156 264.804688 129.535156 C 266.507812 129.535156 268.207031 129.578125 269.90625 129.660156 C 271.609375 129.746094 273.304688 129.871094 275 130.035156 C 276.691406 130.203125 278.378906 130.414062 280.0625 130.664062 C 281.746094 130.914062 283.421875 131.203125 285.09375 131.535156 C 286.761719 131.867188 288.421875 132.242188 290.070312 132.65625 C 291.722656 133.070312 293.363281 133.523438 294.992188 134.019531 C 296.621094 134.511719 298.234375 135.046875 299.835938 135.621094 C 301.4375 136.195312 303.027344 136.808594 304.597656 137.460938 C 306.171875 138.113281 307.726562 138.800781 309.265625 139.53125 C 310.804688 140.257812 312.324219 141.023438 313.824219 141.828125 C 315.324219 142.628906 316.804688 143.46875 318.265625 144.347656 C 319.722656 145.222656 321.160156 146.132812 322.578125 147.078125 C 323.992188 148.027344 325.382812 149.007812 326.75 150.019531 C 328.117188 151.035156 329.457031 152.085938 330.773438 153.164062 C 332.089844 154.246094 333.375 155.359375 334.636719 156.503906 C 335.898438 157.644531 337.128906 158.820312 338.332031 160.027344 C 339.539062 161.230469 340.710938 162.464844 341.851562 163.726562 C 342.996094 164.988281 344.105469 166.277344 345.1875 167.59375 C 346.265625 168.910156 347.3125 170.253906 348.328125 171.621094 C 349.339844 172.992188 350.320312 174.382812 351.265625 175.800781 C 352.210938 177.21875 353.121094 178.65625 353.996094 180.117188 C 354.871094 181.578125 355.710938 183.058594 356.511719 184.5625 C 357.3125 186.066406 358.078125 187.585938 358.808594 189.125 C 359.535156 190.667969 360.222656 192.222656 360.875 193.796875 C 361.527344 195.371094 362.136719 196.960938 362.710938 198.566406 C 363.285156 200.167969 363.820312 201.785156 364.3125 203.417969 C 364.808594 205.046875 365.261719 206.6875 365.675781 208.339844 C 366.085938 209.992188 366.460938 211.65625 366.792969 213.324219 C 367.125 214.996094 367.414062 216.675781 367.664062 218.359375 C 367.914062 220.046875 368.121094 221.734375 368.289062 223.429688 C 368.457031 225.125 368.582031 226.824219 368.664062 228.527344 C 368.75 230.230469 368.789062 231.929688 368.789062 233.636719 Z M 368.789062 233.636719 " fill-opacity="1" fill-rule="nonzero"/></g><g clip-path="url(#id4)"><path fill="#5ce1e6" d="M 214.042969 233.636719 C 214.042969 235.339844 214 237.042969 213.917969 238.742188 C 213.835938 240.445312 213.710938 242.144531 213.542969 243.839844 C 213.375 245.535156 213.167969 247.222656 212.917969 248.910156 C 212.667969 250.59375 212.378906 252.273438 212.046875 253.945312 C 211.714844 255.613281 211.339844 257.277344 210.925781 258.929688 C 210.511719 260.582031 210.058594 262.222656 209.566406 263.851562 C 209.070312 265.484375 208.539062 267.101562 207.964844 268.703125 C 207.390625 270.308594 206.777344 271.898438 206.128906 273.472656 C 205.476562 275.046875 204.789062 276.601562 204.058594 278.144531 C 203.332031 279.683594 202.566406 281.203125 201.765625 282.707031 C 200.960938 284.210938 200.125 285.691406 199.25 287.152344 C 198.375 288.613281 197.464844 290.054688 196.519531 291.46875 C 195.574219 292.886719 194.59375 294.277344 193.578125 295.648438 C 192.566406 297.015625 191.519531 298.359375 190.441406 299.675781 C 189.359375 300.992188 188.25 302.28125 187.105469 303.542969 C 185.964844 304.804688 184.789062 306.039062 183.585938 307.246094 C 182.382812 308.449219 181.152344 309.625 179.890625 310.765625 C 178.628906 311.910156 177.339844 313.023438 176.027344 314.105469 C 174.710938 315.183594 173.371094 316.234375 172.003906 317.25 C 170.636719 318.261719 169.246094 319.242188 167.828125 320.191406 C 166.414062 321.136719 164.976562 322.046875 163.519531 322.921875 C 162.058594 323.800781 160.578125 324.640625 159.078125 325.441406 C 157.574219 326.246094 156.054688 327.011719 154.519531 327.738281 C 152.980469 328.46875 151.425781 329.15625 149.851562 329.808594 C 148.28125 330.460938 146.691406 331.074219 145.089844 331.648438 C 143.488281 332.222656 141.871094 332.757812 140.242188 333.25 C 138.617188 333.746094 136.976562 334.199219 135.324219 334.613281 C 133.675781 335.027344 132.015625 335.402344 130.34375 335.734375 C 128.675781 336.066406 127 336.359375 125.316406 336.609375 C 123.632812 336.859375 121.945312 337.066406 120.25 337.234375 C 118.558594 337.398438 116.859375 337.523438 115.160156 337.609375 C 113.460938 337.691406 111.761719 337.734375 110.058594 337.734375 C 108.355469 337.734375 106.65625 337.691406 104.957031 337.609375 C 103.257812 337.523438 101.558594 337.398438 99.867188 337.234375 C 98.171875 337.066406 96.484375 336.859375 94.800781 336.609375 C 93.117188 336.359375 91.441406 336.066406 89.773438 335.734375 C 88.101562 335.402344 86.445312 335.027344 84.792969 334.613281 C 83.140625 334.199219 81.503906 333.746094 79.875 333.25 C 78.246094 332.757812 76.628906 332.222656 75.027344 331.648438 C 73.425781 331.074219 71.839844 330.460938 70.265625 329.808594 C 68.695312 329.15625 67.136719 328.46875 65.601562 327.738281 C 64.0625 327.011719 62.542969 326.246094 61.039062 325.441406 C 59.539062 324.640625 58.058594 323.800781 56.601562 322.921875 C 55.140625 322.046875 53.703125 321.136719 52.289062 320.191406 C 50.875 319.242188 49.480469 318.261719 48.117188 317.25 C 46.75 316.234375 45.40625 315.183594 44.09375 314.105469 C 42.777344 313.023438 41.488281 311.910156 40.226562 310.765625 C 38.964844 309.625 37.734375 308.449219 36.53125 307.246094 C 35.328125 306.039062 34.15625 304.804688 33.011719 303.542969 C 31.867188 302.28125 30.757812 300.992188 29.679688 299.675781 C 28.597656 298.359375 27.550781 297.015625 26.539062 295.648438 C 25.523438 294.277344 24.542969 292.886719 23.597656 291.46875 C 22.652344 290.054688 21.742188 288.613281 20.867188 287.152344 C 19.992188 285.691406 19.15625 284.210938 18.351562 282.707031 C 17.550781 281.203125 16.785156 279.683594 16.058594 278.144531 C 15.332031 276.601562 14.640625 275.046875 13.988281 273.472656 C 13.339844 271.898438 12.726562 270.308594 12.152344 268.703125 C 11.578125 267.101562 11.046875 265.484375 10.550781 263.851562 C 10.058594 262.222656 9.605469 260.582031 9.191406 258.929688 C 8.777344 257.277344 8.40625 255.613281 8.074219 253.945312 C 7.742188 252.273438 7.449219 250.59375 7.199219 248.910156 C 6.949219 247.222656 6.742188 245.535156 6.574219 243.839844 C 6.410156 242.144531 6.28125 240.445312 6.199219 238.742188 C 6.117188 237.042969 6.074219 235.339844 6.074219 233.636719 C 6.074219 231.929688 6.117188 230.230469 6.199219 228.527344 C 6.28125 226.824219 6.410156 225.125 6.574219 223.429688 C 6.742188 221.734375 6.949219 220.046875 7.199219 218.359375 C 7.449219 216.675781 7.742188 214.996094 8.074219 213.324219 C 8.40625 211.65625 8.777344 209.992188 9.191406 208.339844 C 9.605469 206.6875 10.058594 205.046875 10.550781 203.417969 C 11.046875 201.785156 11.578125 200.167969 12.152344 198.566406 C 12.726562 196.960938 13.339844 195.371094 13.988281 193.796875 C 14.640625 192.222656 15.332031 190.667969 16.058594 189.125 C 16.785156 187.585938 17.550781 186.066406 18.351562 184.5625 C 19.15625 183.058594 19.992188 181.578125 20.867188 180.117188 C 21.742188 178.65625 22.652344 177.21875 23.597656 175.800781 C 24.542969 174.382812 25.523438 172.992188 26.539062 171.621094 C 27.550781 170.253906 28.597656 168.910156 29.679688 167.59375 C 30.757812 166.277344 31.867188 164.988281 33.011719 163.726562 C 34.15625 162.464844 35.328125 161.230469 36.53125 160.027344 C 37.734375 158.820312 38.964844 157.644531 40.226562 156.503906 C 41.488281 155.359375 42.777344 154.246094 44.09375 153.164062 C 45.40625 152.085938 46.75 151.035156 48.117188 150.019531 C 49.480469 149.007812 50.875 148.027344 52.289062 147.078125 C 53.703125 146.132812 55.140625 145.222656 56.601562 144.347656 C 58.058594 143.46875 59.539062 142.628906 61.039062 141.828125 C 62.542969 141.023438 64.0625 140.257812 65.601562 139.53125 C 67.136719 138.800781 68.695312 138.113281 70.265625 137.460938 C 71.839844 136.808594 73.425781 136.195312 75.027344 135.621094 C 76.628906 135.046875 78.246094 134.511719 79.875 134.019531 C 81.503906 133.523438 83.140625 133.070312 84.792969 132.65625 C 86.445312 132.242188 88.101562 131.867188 89.773438 131.535156 C 91.441406 131.203125 93.117188 130.914062 94.800781 130.664062 C 96.484375 130.414062 98.171875 130.203125 99.867188 130.035156 C 101.558594 129.871094 103.257812 129.746094 104.957031 129.660156 C 106.65625 129.578125 108.355469 129.535156 110.058594 129.535156 C 111.761719 129.535156 113.460938 129.578125 115.160156 129.660156 C 116.859375 129.746094 118.558594 129.871094 120.25 130.035156 C 121.945312 130.203125 123.632812 130.414062 125.316406 130.664062 C 127 130.914062 128.675781 131.203125 130.34375 131.535156 C 132.015625 131.867188 133.675781 132.242188 135.324219 132.65625 C 136.976562 133.070312 138.617188 133.523438 140.242188 134.019531 C 141.871094 134.511719 143.488281 135.046875 145.089844 135.621094 C 146.691406 136.195312 148.28125 136.808594 149.851562 137.460938 C 151.425781 138.113281 152.980469 138.800781 154.519531 139.53125 C 156.054688 140.257812 157.574219 141.023438 159.078125 141.828125 C 160.578125 142.628906 162.058594 143.46875 163.519531 144.347656 C 164.976562 145.222656 166.414062 146.132812 167.828125 147.078125 C 169.246094 148.027344 170.636719 149.007812 172.003906 150.019531 C 173.371094 151.035156 174.710938 152.085938 176.027344 153.164062 C 177.339844 154.246094 178.628906 155.359375 179.890625 156.503906 C 181.152344 157.644531 182.382812 158.820312 183.585938 160.027344 C 184.789062 161.230469 185.964844 162.464844 187.105469 163.726562 C 188.25 164.988281 189.359375 166.277344 190.441406 167.59375 C 191.519531 168.910156 192.566406 170.253906 193.578125 171.621094 C 194.59375 172.992188 195.574219 174.382812 196.519531 175.800781 C 197.464844 177.21875 198.375 178.65625 199.25 180.117188 C 200.125 181.578125 200.960938 183.058594 201.765625 184.5625 C 202.566406 186.066406 203.332031 187.585938 204.058594 189.125 C 204.789062 190.667969 205.476562 192.222656 206.128906 193.796875 C 206.777344 195.371094 207.390625 196.960938 207.964844 198.566406 C 208.539062 200.167969 209.070312 201.785156 209.566406 203.417969 C 210.058594 205.046875 210.511719 206.6875 210.925781 208.339844 C 211.339844 209.992188 211.714844 211.65625 212.046875 213.324219 C 212.378906 214.996094 212.667969 216.675781 212.917969 218.359375 C 213.167969 220.046875 213.375 221.734375 213.542969 223.429688 C 213.710938 225.125 213.835938 226.824219 213.917969 228.527344 C 214 230.230469 214.042969 231.929688 214.042969 233.636719 Z M 214.042969 233.636719 " fill-opacity="1" fill-rule="nonzero"/></g><g mask="url(#id5)"><g transform="matrix(1, 0, 0, 1, 83, 129)"><g clip-path="url(#id7)"><g clip-path="url(#id6)"><path fill="#318ba2" d="M 77.898438 100.800781 C 78.8125 75.578125 88.683594 52.644531 104.433594 35.09375 C 85.398438 13.882812 57.785156 0.535156 27.058594 0.535156 C 17.832031 0.535156 8.886719 1.746094 0.371094 4.003906 C 2.09375 50.636719 34.457031 89.429688 77.898438 100.800781 Z M 77.898438 100.800781 " fill-opacity="1" fill-rule="nonzero"/></g></g></g></g><g mask="url(#id8)"><g transform="matrix(1, 0, 0, 1, 187, 129)"><g clip-path="url(#id10)"><g clip-path="url(#id9)"><path fill="#318ba2" d="M 0.433594 35.09375 C 16.164062 52.625 26.03125 75.527344 26.960938 100.714844 C 70.273438 89.234375 102.496094 50.476562 104.179688 3.917969 C 95.757812 1.714844 86.917969 0.535156 77.804688 0.535156 C 47.078125 0.535156 19.46875 13.882812 0.433594 35.09375 Z M 0.433594 35.09375 " fill-opacity="1" fill-rule="nonzero"/></g></g></g></g><g mask="url(#id11)"><g transform="matrix(1, 0, 0, 1, 160, 163)"><g clip-path="url(#id13)"><g clip-path="url(#id12)"><path fill="#318ba2" d="M 0.898438 66.800781 C 9.324219 69.003906 18.160156 70.183594 27.273438 70.183594 C 36.5 70.183594 45.445312 68.972656 53.960938 66.714844 C 53.03125 41.523438 43.160156 18.625 27.433594 1.09375 C 11.683594 18.644531 1.8125 41.578125 0.898438 66.800781 Z M 0.898438 66.800781 " fill-opacity="1" fill-rule="nonzero"/></g></g></g></g><g mask="url(#id14)"><g transform="matrix(1, 0, 0, 1, 160, 228)"><g clip-path="url(#id16)"><g clip-path="url(#id15)"><path fill="#5271ff" d="M 53.960938 1.714844 C 45.445312 3.972656 36.5 5.183594 27.273438 5.183594 C 18.160156 5.183594 9.320312 4.003906 0.898438 1.800781 C 0.855469 3.074219 0.824219 4.351562 0.824219 5.636719 C 0.824219 32.367188 10.890625 56.742188 27.433594 75.175781 C 43.976562 56.742188 54.042969 32.367188 54.042969 5.636719 C 54.042969 4.320312 54.011719 3.015625 53.960938 1.714844 Z M 53.960938 1.714844 " fill-opacity="1" fill-rule="nonzero"/></g></g></g></g><g mask="url(#id17)"><g transform="matrix(1, 0, 0, 1, 160, 163)"><g clip-path="url(#id19)"><g clip-path="url(#id18)"><path fill="#5271ff" d="M 0.898438 66.800781 C 9.324219 69.003906 18.160156 70.183594 27.273438 70.183594 C 36.5 70.183594 45.445312 68.972656 53.960938 66.714844 C 53.03125 41.523438 43.160156 18.625 27.433594 1.09375 C 11.683594 18.644531 1.8125 41.578125 0.898438 66.800781 Z M 0.898438 66.800781 " fill-opacity="1" fill-rule="nonzero"/></g></g></g></g></svg>